<?xml version="1.0" encoding="UTF-8"?><svg id="uuid-73f9b3a9-65b4-4433-8619-bc698210d259" xmlns="http://www.w3.org/2000/svg" viewBox="0 0 251.14 233.29"><polygon points="84.38 66.16 84.38 154.22 100.66 154.22 100.66 48.59 84.38 66.16"/><polygon points="51.75 101.35 51.75 154.22 68.03 154.22 68.03 83.78 51.75 101.35"/><polygon points="19.12 136.55 19.12 154.22 35.39 154.22 35.39 119.03 19.12 136.55"/><polygon points="149.65 48.64 149.65 154.22 165.85 154.22 165.85 66.11 149.65 48.64"/><polygon points="214.92 119.03 214.92 154.22 231.11 154.22 231.11 136.5 214.92 119.03"/><polygon points="125.12 22.21 117.02 30.97 117.02 154.22 133.29 154.22 133.29 31.02 125.12 22.21"/><polygon points="182.29 83.84 182.29 154.22 198.48 154.22 198.48 101.3 182.29 83.84"/><polygon points="19.12 0 2.76 0 2.76 154.22 19.12 136.55 19.12 0"/><polygon points="51.75 101.35 51.75 0 35.39 0 35.39 119.03 51.75 101.35"/><polygon points="84.38 66.16 84.38 0 68.03 0 68.03 83.78 84.38 66.16"/><polygon points="117.02 30.97 117.02 0 100.66 0 100.66 48.59 117.02 30.97"/><polygon points="149.65 48.64 149.65 0 133.29 0 133.29 31.02 149.65 48.64"/><polygon points="182.29 83.84 182.29 0 165.85 0 165.85 66.11 182.29 83.84"/><polygon points="214.92 119.03 214.92 0 198.48 0 198.48 101.3 214.92 119.03"/><polygon points="231.11 0 231.11 136.5 247.55 154.22 247.55 0 231.11 0"/><path d="M40.51,222.36v-30.5c0-8.99-4.89-13.77-14.45-13.77-5.46,0-11.15,1.71-16.16,4.67-4.89,2.84-8.99,7.05-9.9,12.06h12.18v-12.4c1.37-.34,3.19-.57,4.89-.57,6.71,0,11.15,2.28,11.15,9.22v10.7c-3.98,1.02-9.1,2.5-15.25,5.01-7.74,3.3-12.52,7.4-12.52,14.11,0,7.62,5.23,12.4,13.31,12.4,7.62,0,11.95-4.1,14.68-8.53.68,4.1,4.1,7.74,10.24,7.74h8.08v-10.13h-6.26ZM28.22,224.18l-4.71.93c-14.08,2.61-20.56-15.09,4.71-22.45v21.52Z"/><polygon points="53.27 232.49 67.99 232.49 65.71 227.03 65.71 179.24 51.15 179.24 53.31 186.4 53.31 227.03 53.27 232.49"/><path d="M89.76,202.48v-20.62h7.72c4.19,0,6.28,1.71,6.28,5.11,0,1.27-.36,2.43-1.07,3.48-.71,1.05-1.69,1.85-2.93,2.4l6.74,9.63h-5.22l-5.11-8.43h-2.37v8.43h-4.04ZM93.8,191.23h.99c3.11,0,4.67-1.26,4.67-3.78,0-1.84-1.39-2.76-4.17-2.76h-1.49v6.53Z"/><path d="M119.63,203c-3.13,0-5.63-.98-7.51-2.95-1.88-1.97-2.82-4.59-2.82-7.87s.94-5.95,2.83-7.9c1.88-1.95,4.43-2.93,7.63-2.93s5.72.98,7.61,2.93c1.89,1.95,2.84,4.57,2.84,7.86s-.95,6.01-2.84,7.96-4.47,2.91-7.75,2.91ZM119.68,200.16c1.84,0,3.29-.72,4.37-2.17,1.07-1.44,1.61-3.4,1.61-5.87s-.54-4.32-1.62-5.77c-1.08-1.45-2.5-2.17-4.28-2.17s-3.23.72-4.3,2.17c-1.07,1.45-1.61,3.39-1.61,5.81s.53,4.34,1.6,5.8c1.07,1.46,2.48,2.19,4.22,2.19Z"/><path d="M132.96,202.48l8.03-20.62h4.29l8.02,20.62h-4.4l-2.15-5.5h-8.53l-2.15,5.5h-3.12ZM139.29,194.24h6.41l-3.2-8.22-3.21,8.22Z"/><path d="M156.21,202.3v-3.54c2.22.93,4.12,1.39,5.7,1.39,1.11,0,1.98-.25,2.61-.74.64-.49.95-1.16.95-2.01,0-.67-.2-1.23-.6-1.69-.4-.46-1.16-1.01-2.27-1.64l-1.38-.77c-1.85-1.04-3.15-2.04-3.92-2.99-.76-.95-1.14-2.06-1.14-3.34,0-1.7.62-3.07,1.87-4.1,1.25-1.03,2.9-1.55,4.95-1.55,1.64,0,3.5.24,5.56.71v3.3c-2.11-.79-3.78-1.18-5-1.18-.95,0-1.71.21-2.28.63-.57.42-.86.98-.86,1.67,0,.57.2,1.06.6,1.49.4.43,1.15.95,2.26,1.57l1.48.82c1.99,1.11,3.36,2.14,4.11,3.08.75.94,1.13,2.08,1.13,3.43,0,1.91-.71,3.41-2.13,4.5-1.42,1.09-3.38,1.63-5.88,1.63-1.65,0-3.58-.23-5.77-.7Z"/><path d="M179.92,202.48v-17.79h-7.38v-2.83h19.07v2.83h-7.38v17.79h-4.3Z"/><path d="M195.64,202.48v-20.62h12.89v2.83h-8.6v5.75h7.05v2.76h-7.05v6.35h9.25v2.93h-13.54Z"/><path d="M213.92,202.48v-20.62h7.72c4.19,0,6.28,1.71,6.28,5.11,0,1.27-.36,2.43-1.07,3.48-.71,1.05-1.69,1.85-2.93,2.4l6.74,9.63h-5.22l-5.11-8.43h-2.37v8.43h-4.04ZM217.96,191.23h.99c3.11,0,4.67-1.26,4.67-3.78,0-1.84-1.39-2.76-4.17-2.76h-1.49v6.53Z"/><path d="M239.65,202.48v-8.64l-6.92-11.98h4.74l5.03,8.71,5.25-8.71h3.4l-7.2,11.95v8.67h-4.29Z"/><path d="M106.92,231.97h-4.85l-.92-1.1c-1.63,1.08-3.41,1.62-5.36,1.62-2.22,0-4.05-.62-5.5-1.87-1.44-1.24-2.17-2.82-2.17-4.74,0-2.84,1.71-4.97,5.14-6.38-.98-1.73-1.48-3.14-1.48-4.24,0-1.25.55-2.31,1.64-3.16s2.45-1.28,4.06-1.28,2.83.41,3.83,1.23,1.5,1.87,1.5,3.14c0,1.98-1.52,3.67-4.56,5.08,1.18,2.18,2.57,4.25,4.18,6.19.94-1.36,1.41-3.25,1.41-5.67v-.32h3.47c0,3.04-1.1,5.73-3.29,8.08.91,1.18,1.87,2.32,2.88,3.41ZM94.68,221.64c-1.7.77-2.55,1.94-2.55,3.5,0,1.31.42,2.42,1.27,3.33.85.91,1.89,1.37,3.11,1.37,1.08,0,2.08-.33,3-.98-1.53-1.94-2.98-4.06-4.33-6.37l-.5-.85ZM96.98,218.36c1.61-.85,2.41-1.88,2.41-3.08s-.61-1.87-1.84-1.87-1.84.6-1.84,1.8c0,.81.42,1.86,1.27,3.15Z"/><path d="M139.29,231.15c-2,.89-4.38,1.34-7.15,1.34-3.38,0-6.01-.95-7.9-2.86-1.89-1.9-2.83-4.56-2.83-7.97s.95-6.15,2.85-8.02c1.9-1.87,4.61-2.81,8.13-2.81,2.25,0,4.48.27,6.7.79v3.36c-2.52-.88-4.63-1.32-6.33-1.32-2.17,0-3.85.69-5.03,2.07-1.18,1.38-1.77,3.34-1.77,5.87s.63,4.43,1.9,5.82,3.03,2.09,5.29,2.09c2.03,0,4.07-.51,6.13-1.53v3.16Z"/><path d="M141.9,231.97l8.03-20.62h4.29l8.02,20.62h-4.4l-2.15-5.5h-8.53l-2.15,5.5h-3.12ZM148.23,223.73h6.41l-3.2-8.22-3.21,8.22Z"/><path d="M166.31,231.97v-20.62h12.97v2.83h-8.68v6.27h7.13v2.84h-7.13v8.68h-4.29Z"/><path d="M183.84,231.97v-20.62h12.89v2.83h-8.6v5.75h7.05v2.76h-7.05v6.35h9.25v2.93h-13.54Z"/></svg>