<?xml version="1.0" encoding="UTF-8"?><svg id="uuid-326e357f-846d-4ac7-b536-b7391996d82b" xmlns="http://www.w3.org/2000/svg" viewBox="0 0 532.21 502.52"><path d="M284.46,206.44h-34.46v27.98h34.46c7.73,0,13.99-6.26,13.99-13.99s-6.26-13.99-13.99-13.99Z"/><path d="M502.59,143.49H139.09c-.04.06-.07.12-.1.18H30.56l-1.76,2.92C9.96,177.95,0,213.95,0,250.7s10.23,73.74,29.59,105.41l1.76,2.88h108.53s0,.02.01.02h361.88c19.31-31.58,30.43-68.71,30.43-108.43s-10.82-75.8-29.62-107.09ZM185.16,213.5c-.43-.01-.86-.02-1.3-.02-22.75,0-39.9,16.03-39.9,37.58s17.14,37.83,39.9,37.83c.43,0,.87,0,1.3-.02v42.75c-.92.03-1.85.04-2.77.04-48.56,0-85.15-34.78-85.15-80.75s36.59-80.2,85.15-80.2c.93,0,1.85.02,2.77.04v42.75ZM317.66,262.02c-7.8,5.12-17.13,8.1-27.15,8.12-.03,0-.06,0-.09,0s-.06,0-.1,0h-40.32v61.52h-45.28v-160.95h45.28s40.32,0,40.32,0c.03,0,.06,0,.1,0s.06,0,.09,0c10.03.02,19.35,3,27.15,8.12,13.54,8.88,22.49,24.19,22.49,41.59s-8.94,32.71-22.49,41.59ZM434.97,213.5c-.43-.01-.86-.02-1.3-.02-22.75,0-39.89,16.03-39.89,37.58s17.14,37.83,39.89,37.83c.43,0,.87,0,1.3-.02v42.75c-.92.03-1.85.04-2.77.04-48.56,0-85.15-34.78-85.15-80.75s36.59-80.2,85.15-80.2c.93,0,1.85.02,2.77.04v42.75Z"/><path d="M472.84,125.07l-1.39-2.57c-30.76-56.84-82.92-97.47-143.4-114.12-19.93-5.49-40.77-8.38-62.04-8.38C180.17,0,101.45,46.94,60.56,122.51l-4.31,7.97h419.52l-2.92-5.4ZM207.73,48.05c-23.9,18.27-43.84,40.54-59.31,66.23h-64.09c18.84-28.68,44.31-52.63,74.13-69.62,32.04-18.25,68.41-28.07,105.33-28.45-19.97,7.95-38.75,18.61-56.06,31.84Z"/><path d="M56.25,372.04l2.92,5.4,1.39,2.57c30.75,56.83,82.91,97.46,143.39,114.12,19.94,5.49,40.78,8.38,62.05,8.38,85.83,0,164.55-46.94,205.45-122.51l4.31-7.97H56.25ZM324.51,454.44c23.85-18.28,43.74-40.54,59.17-66.2h64c-18.84,28.68-44.31,52.63-74.13,69.62-31.93,18.19-68.17,28-104.95,28.45,19.92-7.97,38.64-18.64,55.91-31.87Z"/></svg>