<?xml version="1.0" encoding="UTF-8"?><svg id="uuid-b245c665-11a5-4f76-9e2f-5ab2e1a4c78a" xmlns="http://www.w3.org/2000/svg" viewBox="0 0 180.22 51.48"><path d="M0,51.48V0h19.59c14.26,0,22.9,9.22,22.9,25.78s-8.5,25.71-22.75,25.71H0ZM19.23,44.64c11.95,0,15.05-8.93,15.05-18.87s-3.1-18.94-15.05-18.94H7.92v37.8h11.3Z"/><path d="M50.33,51.48V0h9.07l23.91,39.6h.14V0h7.99v51.48h-9.07L58.39,11.88h-.14v39.6h-7.92Z"/><path d="M101.66,51.48V0h7.92v44.64h26.07v6.84h-33.99Z"/><path d="M136.58,51.48l17.43-26.28L137.81,0h8.78l11.95,19.44h.07L170.64,0h8.71l-16.2,25.06,17.07,26.43h-9.22l-12.6-20.52h-.07l-12.46,20.52h-9.29Z"/></svg>